<svg xmlns="http://www.w3.org/2000/svg" viewBox="5710.325 5842.333 258.53 272.895">
  <defs>
    <style>
      .cls-1, .cls-6 {
        fill: #1d2055;
      }

      .cls-2 {
        fill: #57fea7;
      }

      .cls-3 {
        fill: #fff;
      }

      .cls-4 {
        fill: none;
        stroke: #fff;
        stroke-miterlimit: 10;
      }

      .cls-5 {
        fill: rgba(29,32,85,0.18);
      }

      .cls-6 {
        opacity: 0.8;
      }
    </style>
  </defs>
  <g id="Group_32" data-name="Group 32" transform="translate(4632 4726)">
    <g id="XMLID_1_" transform="matrix(0.259, 0.966, -0.966, 0.259, 1252.002, 1112.153)">
      <g id="Group_26" data-name="Group 26" transform="translate(0.532 0.5)">
        <path id="Path_90" data-name="Path 90" class="cls-1" d="M245.378,62.323a10.092,10.092,0,0,1,0,5.312l-62.665,27.95-4.49-3.6a14.257,14.257,0,0,0-.379-2.276L162.415,32.982A12.211,12.211,0,0,0,159,27.291L231.719,13h0a10.49,10.49,0,0,1,.759,1.96Z" transform="translate(-58.794 -5.096)"/>
        <path id="Path_91" data-name="Path 91" class="cls-1" d="M196.5,127.35,259.165,99.4a10.109,10.109,0,0,1-4.3,5.944l-41.039,26.875-1.328.759a10.259,10.259,0,0,1-10.687-1.328Z" transform="translate(-72.581 -36.861)"/>
        <path id="Path_92" data-name="Path 92" class="cls-1" d="M170.773.816A11.579,11.579,0,0,1,173.745.5l49.007,2.4a10.189,10.189,0,0,1,8.6,5.565h0L158.632,22.758c-.19-.19-.443-.379-.632-.569l5.754-15.113A9.862,9.862,0,0,1,170.773.816Z" transform="translate(-58.426 -0.5)"/>
        <path id="Path_93" data-name="Path 93" class="cls-1" d="M177.644,149.265l.063.126L101.7,183.917c.253-.126.506-.316.759-.443l49.133-32.186a11.6,11.6,0,0,0,4.363-5.059l5.628-2.529,5.375,4.3A10.4,10.4,0,0,0,177.644,149.265Z" transform="translate(-37.727 -53.149)"/>
        <path id="Path_94" data-name="Path 94" class="cls-1" d="M188.638,137.9l4.49,3.6-5.628,2.529A11.46,11.46,0,0,0,188.638,137.9Z" transform="translate(-69.272 -51.016)"/>
        <path id="Path_95" data-name="Path 95" class="cls-2" d="M64.64,165.387a12.286,12.286,0,0,1-13.6-1.138L5.2,127.383a12.556,12.556,0,0,1-4.3-6.829h0L87.784,93.363,88.1,93.3a10.112,10.112,0,0,0,3.478,5.375L119.97,121.5a12.372,12.372,0,0,1-5.5,11.192L65.336,164.881A6.621,6.621,0,0,1,64.64,165.387Z" transform="translate(-0.667 -34.619)"/>
        <path id="Path_96" data-name="Path 96" class="cls-3" d="M151.457,35.406a12.754,12.754,0,0,1,3.415,5.691L170.3,97.818a14.257,14.257,0,0,1,.379,2.276L142.288,77.267a9.758,9.758,0,0,1-3.478-5.375,10.4,10.4,0,0,1,.316-6.2l11.7-30.8C151.014,35.026,151.2,35.216,151.457,35.406Z" transform="translate(-51.251 -13.147)"/>
        <path id="Path_97" data-name="Path 97" class="cls-1" d="M51.5,16.809,131.618,1a10.333,10.333,0,0,0-7.082,6.26l-5.754,15.113a12.1,12.1,0,0,0-7.209-2.782L52.891,16.745A10.245,10.245,0,0,0,51.5,16.809Z" transform="translate(-19.271 -0.684)"/>
        <path id="Path_98" data-name="Path 98" class="cls-2" d="M100.043,31.537l-11.7,30.8a9.925,9.925,0,0,0-.316,6.2l-.316.063L.828,95.783h0a12.156,12.156,0,0,1,.506-7.019L22.2,33.813a12.178,12.178,0,0,1,7.588-7.272l3.035-.569a5.593,5.593,0,0,1,1.454,0L92.96,28.818A11.587,11.587,0,0,1,100.043,31.537Z" transform="translate(-0.532 -9.848)"/>
      </g>
      <g id="Group_27" data-name="Group 27" transform="translate(0.532 0.5)">
        <path id="Path_99" data-name="Path 99" class="cls-4" d="M.828,95.783a12.156,12.156,0,0,1,.506-7.019L22.2,33.813a12.178,12.178,0,0,1,7.588-7.272,11.738,11.738,0,0,1,3.035-.569,5.593,5.593,0,0,1,1.454,0L92.96,28.818a12.255,12.255,0,0,1,7.209,2.782,5.7,5.7,0,0,1,.632.569,12.754,12.754,0,0,1,3.415,5.691l15.429,56.721a14.255,14.255,0,0,1,.379,2.276,12.372,12.372,0,0,1-5.5,11.192L65.39,140.237a4.717,4.717,0,0,1-.759.443,12.286,12.286,0,0,1-13.6-1.138L5.065,102.612A11.9,11.9,0,0,1,.828,95.783Z" transform="translate(-0.532 -9.848)"/>
        <path id="Path_100" data-name="Path 100" class="cls-4" d="M138.71,59.181a10.4,10.4,0,0,1,.316-6.2l11.7-30.8,5.754-15.113a10.072,10.072,0,0,1,7.082-6.26A11.579,11.579,0,0,1,166.533.5L215.54,2.9a10.189,10.189,0,0,1,8.6,5.565,10.491,10.491,0,0,1,.759,1.96l12.9,47.3a10.279,10.279,0,0,1-4.3,11.256L192.459,95.857l-1.328.759a10.259,10.259,0,0,1-10.687-1.328l-5.375-4.3-4.49-3.6L142.188,64.556A10.5,10.5,0,0,1,138.71,59.181Z" transform="translate(-51.214 -0.5)"/>
        <path id="Path_101" data-name="Path 101" class="cls-4" d="M46.7,17.341l3.035-.569L129.853.963l.19-.063" transform="translate(-17.506 -0.647)"/>
        <path id="Path_102" data-name="Path 102" class="cls-4" d="M158.6,27.417l.253-.063L231.572,13" transform="translate(-58.647 -5.096)"/>
        <path id="Path_103" data-name="Path 103" class="cls-4" d="M100.2,187.485l.949-.443,76.008-34.526.569-.316" transform="translate(-37.176 -56.274)"/>
        <line id="Line_2" data-name="Line 2" class="cls-4" y1="27.191" x2="86.884" transform="translate(0.296 58.745)"/>
        <path id="Path_104" data-name="Path 104" class="cls-4" d="M187.6,129.879l5.628-2.529L255.893,99.4" transform="translate(-69.309 -36.861)"/>
      </g>
    </g>
    <path id="Path_112" data-name="Path 112" class="cls-5" d="M1.066,81.238,28.038,10.212A15.93,15.93,0,0,1,43.567,0l75.847,3.678A15.807,15.807,0,0,1,133.881,15.28l19.943,73.314A15.882,15.882,0,0,1,147.2,106L83.7,147.6a15.715,15.715,0,0,1-18.553-.9L5.888,99.137A15.739,15.739,0,0,1,1.066,81.238Z" transform="translate(1182.479 1239.022)"/>
    <path id="Path_113" data-name="Path 113" class="cls-6" d="M.464,38.352,21.628,1.693a3.367,3.367,0,0,1,5.843,0L48.635,38.352a3.381,3.381,0,0,1-2.93,5.067H3.376A3.368,3.368,0,0,1,.464,38.352Z" transform="translate(1100.034 1157.967) rotate(30)"/>
  </g>
</svg>
