<svg xmlns="http://www.w3.org/2000/svg" viewBox="4573.955 5307.482 175.35 222.751">
  <defs>
    <style>
      .cls-1 {
        fill: #1d2055;
      }

      .cls-2 {
        fill: #57ffa7;
      }

      .cls-3 {
        fill: none;
        stroke: #1d2055;
        stroke-miterlimit: 10;
        stroke-width: 4px;
      }
    </style>
  </defs>
  <g id="Group_31" data-name="Group 31" transform="translate(4632 4726)">
    <path id="Path_107" data-name="Path 107" class="cls-1" d="M0,26.445V1.776A1.775,1.775,0,0,1,1.776,0H26.445a1.775,1.775,0,0,1,1.776,1.776V26.445a1.775,1.775,0,0,1-1.776,1.776H1.776A1.775,1.775,0,0,1,0,26.445Z" transform="translate(92.864 581.482) rotate(30)"/>
    <path id="Path_110" data-name="Path 110" class="cls-2" d="M51.82,150.543,2.571,100.426A8.934,8.934,0,0,1,.342,91.792L19.118,24.079a8.93,8.93,0,0,1,6.357-6.242L93.5.241a8.913,8.913,0,0,1,8.585,2.376l49.249,50.117a8.9,8.9,0,0,1,2.228,8.618l-18.776,67.73a8.93,8.93,0,0,1-6.357,6.242L60.4,152.919A8.952,8.952,0,0,1,51.82,150.543Z" transform="translate(-55.754 608.802)"/>
    <path id="Path_111" data-name="Path 111" class="cls-3" d="M10.879,91.186,1.138,59.366A15.269,15.269,0,0,1,2.274,47.731L17.914,18.347a15.31,15.31,0,0,1,9.037-7.468l31.82-9.741A15.269,15.269,0,0,1,70.406,2.274L99.79,17.914a15.31,15.31,0,0,1,7.468,9.037L117,58.771a15.269,15.269,0,0,1-1.136,11.635L100.223,99.79a15.31,15.31,0,0,1-9.037,7.468L59.366,117a15.269,15.269,0,0,1-11.635-1.136L18.347,100.223A15.123,15.123,0,0,1,10.879,91.186Z" transform="translate(-56.475 684.525)"/>
  </g>
</svg>
