<svg xmlns="http://www.w3.org/2000/svg" viewBox="5654.906 4902.841 125.34 94.801">
  <defs>
    <style>
      .cls-1 {
        fill: none;
        stroke: #1d2055;
        stroke-miterlimit: 10;
        stroke-width: 4px;
        opacity: 0.9;
      }

      .cls-2 {
        fill: #57fea7;
      }
    </style>
  </defs>
  <g id="Group_33" data-name="Group 33" transform="translate(4632 4726)">
    <path id="Path_114" data-name="Path 114" class="cls-1" d="M30.551,87.791,7.115,70.436A16.092,16.092,0,0,1,.662,55.6l3.263-29A16.258,16.258,0,0,1,13.567,13.55L40.341,1.831A16.115,16.115,0,0,1,56.436,3.686L79.947,21.041A16.092,16.092,0,0,1,86.4,35.874l-3.263,29a16.258,16.258,0,0,1-9.642,13.053L46.72,89.571A16.237,16.237,0,0,1,30.551,87.791Z" transform="translate(1024.385 178.514)"/>
    <path id="Path_115" data-name="Path 115" class="cls-2" d="M.461,38.139,21.508,1.684a3.348,3.348,0,0,1,5.81,0L48.365,38.139a3.362,3.362,0,0,1-2.914,5.039H3.358A3.349,3.349,0,0,1,.461,38.139Z" transform="translate(1105.97 182.579) rotate(30)"/>
  </g>
</svg>
